<?xml version="1.0" encoding="UTF-8"?>
<svg version="1.1" viewBox="0 0 1024 1024" width="1024" height="1024" xmlns="http://www.w3.org/2000/svg">
<path transform="translate(0)" d="m0 0h1024v1024h-1024z" fill="#FDFAF4"/>
<path transform="translate(507,207)" d="m0 0h11l11 8 15 13 10 8 13 11 14 11 15 13 11 9 17 14 13 11 11 9 13 11 11 9 13 11 11 9 13 11 11 9 13 11 11 9 13 11 11 9 14 12 11 9 26 22 3 6v8l-4 7-8 4-9-1-7-4-13-11-14-11-1 344-4 10-9 8-9 3h-134l-7-3-8-7-12-21-16-29-30-56-5-7v-2h-15l-17 1 7 6 4 10 5 32 11 58v7l-4 7-8 4h-235l-9-3-7-6-5-10v-345l-5 3-16 13-12 9-3 1h-7l-7-3-5-6-1-2v-9l3-6 13-11 11-9 14-12 11-9 13-11 14-11 9-8 11-9 14-12 11-9 13-11 14-11 15-13 11-9 13-11 11-9 13-11 10-8 13-11 10-8 13-11 11-9 13-11 10-8 8-6z" fill="#FDFAF4"/>
<path transform="translate(507,207)" d="m0 0h11l11 8 15 13 10 8 13 11 14 11 15 13 11 9 17 14 13 11 11 9 13 11 11 9 13 11 11 9 13 11 11 9 13 11 11 9 13 11 11 9 14 12 11 9 26 22 3 6v8l-4 7-8 4-9-1-7-4-13-11-14-11-1 344-4 10-9 8-9 3h-134l-7-3-8-7-12-21-16-29-30-56-5-7v-2h-15l-17 1 7 6 4 10 5 32 11 58v7l-4 7-8 4h-235l-9-3-7-6-5-10v-345l-5 3-16 13-12 9-3 1h-7l-7-3-5-6-1-2v-9l3-6 13-11 11-9 14-12 11-9 13-11 14-11 9-8 11-9 14-12 11-9 13-11 14-11 15-13 11-9 13-11 11-9 13-11 10-8 13-11 10-8 13-11 11-9 13-11 10-8 8-6zm4 34-9 8-11 9-13 11-14 11-10 9-10 8-13 11-22 18-13 11-11 9-13 11-11 9-13 11-22 18-13 11-22 18-3 3v362l1 2h55l3-8 14-47 4-13v-3l-10-6-10-9-7-11-3-9-10-57-11-69v-12l4-6 5-2 9 1 5 4 3 12 14 93 5 27 6 12 8 7 5 2h55v-1l-23-2-14-5-11-8-8-10-6-13-4-16-5-41-4-41v-27l3-17 5-15 6-10 7-8 11-7 9-3h19l12 4 8 6 7 7 8 14 17 35 11 23 2 2 13 1 61 1 9 3 7 6 4 10v7l-2 6-4 3h32l28-1 4-10 20-59 12-33 5-5h18l4 2 1 2-1 9-15 43-17 50-8 16-8 6-6 2-7 1h-107l-7-4-3-9h-48l-11-3v22l94 7 12 3 10 6 7 8 7 14 36 82 13 30 4 10h96v-364l-13-11-11-9-13-11-14-11-9-8-11-9-13-11-10-8-13-11-11-9-13-11-14-11-15-13-11-9-17-14-13-11-22-18z" fill="#4A676E"/>
<path transform="translate(399,472)" d="m0 0h19l12 4 8 6 8 8 8 14 17 35 11 23 1 1 13 1 61 1 9 3 8 7 4 10v7l-3 7-2 1h30l28-1 15-45 17-48 4-10 5-4h18l5 3 1 2-1 9-15 43-17 50-8 16-9 7-6 2-7 1h-107l-7-4-3-5v-5l-14 1h-34l-9-3-2-1v22h12l82 6 12 3 10 6 8 9 7 14 36 82 13 30 8 20 8 18v1l-15 1h-28l-7-3-8-7-12-21-16-29-30-56-5-7v-2h-15l-18 1-66 1-23-2-14-5-11-8-7-8-8-16-4-16-5-41-4-41v-27l3-17 5-15 6-10 8-9 11-7z" fill="#5CA18E"/>
<path transform="translate(450,366)" d="m0 0h16l12 3 10 5 11 10 8 14 3 11v18l-5 15-8 11-9 8-12 6-8 2h-20l-14-5-13-10-7-10-5-11-2-11v-10l4-16 6-10 7-8 9-6 12-5z" fill="#4A676E"/>
<path transform="translate(448,724)" d="m0 0h37l3 12 10 51-1 4h-126l2-9 14-47 4-10z" fill="#FDFAF4"/>
<path transform="translate(672,492)" d="m0 0h18l5 3 1 2-1 9-15 43-17 50-8 16h-3v-2h-2v-2l-6-1-4-3-4-2-5-6 15-45 17-48 4-10z" fill="#5CA18E"/>
<path transform="translate(603,600)" d="m0 0h29l5 5 6 3 7 3v2h2l1 4-7 5-6 2-7 1h-107l-7-4-3-5v-6l2-4 6-3 32-2z" fill="#4A676E"/>
<path transform="translate(399,533)" d="m0 0h5l7 9 9 16 12 20 10 15 9 10 6 4v23h-10l-8-3-6-7-20-41-13-28-3-7v-9z" fill="#4A676E"/>
</svg>
